<svg width="312" height="312" xmlns="http://www.w3.org/2000/svg" xmlns:xlink="http://www.w3.org/1999/xlink" xml:space="preserve" overflow="hidden"><g transform="translate(-388 -140)"><path d="M625.231 333.7 625.231 304.085C625.223 297.828 620.15 292.755 613.891 292.75L599.231 292.75 599.231 276.499 562.396 276.499 562.396 266.751 571.967 266.751C581.637 266.741 589.471 258.904 589.481 249.237L589.481 212.765C589.471 203.095 581.637 195.258 571.967 195.251L547.231 195.251 547.231 185.039C554.183 183.243 558.362 176.153 556.568 169.2 554.773 162.25 547.683 158.069 540.73 159.865 533.778 161.658 529.599 168.751 531.392 175.701 532.576 180.28 536.151 183.857 540.73 185.039L540.73 195.251 515.991 195.251C506.324 195.261 498.49 203.098 498.48 212.765L498.48 249.237C498.49 258.904 506.324 266.738 515.991 266.751L526.646 266.751 526.646 276.499 488.729 276.499 488.729 295.978 468.105 295.978C465.437 295.975 463.273 293.814 463.271 291.146L463.271 261.528C472.977 259.727 479.387 250.399 477.586 240.692 476.991 237.496 475.539 234.521 473.38 232.089L468.526 236.41C472.697 241.11 472.27 248.298 467.572 252.47 462.873 256.641 455.684 256.214 451.513 251.517 447.71 247.235 447.685 240.793 451.454 236.479L446.558 232.2C440.067 239.639 440.836 250.93 448.275 257.42 450.687 259.526 453.621 260.943 456.77 261.528L456.77 291.146C456.778 297.403 461.848 302.471 468.105 302.478L488.729 302.478 488.729 370.831C473.51 371.737 461.905 384.809 462.811 400.031 463.678 414.612 475.751 425.991 490.356 426.001L597.605 426.001C612.854 425.991 625.208 413.624 625.199 398.375 625.191 383.77 613.809 371.698 599.231 370.831L599.231 299.25 613.891 299.25C616.561 299.253 618.725 301.417 618.73 304.085L618.73 333.7C609.024 335.501 602.614 344.829 604.415 354.536 605.007 357.729 606.459 360.704 608.616 363.134L613.473 358.813C609.301 354.113 609.731 346.925 614.428 342.753 619.128 338.584 626.316 339.012 630.488 343.711 634.288 347.993 634.313 354.435 630.544 358.749L635.438 363.026C641.929 355.585 641.157 344.294 633.718 337.806 631.308 335.7 628.375 334.285 625.231 333.7ZM537.48 172.5C537.48 168.91 540.391 165.999 543.98 165.999 547.57 165.999 550.481 168.91 550.481 172.5 550.481 176.089 547.57 179 543.98 179 540.391 179.003 537.48 176.094 537.478 172.502 537.478 172.502 537.478 172.502 537.478 172.5ZM495.23 331.978 521.799 331.978 532.387 309.47 542.337 347.588 555.763 319.963 564.211 340.014 570.763 333.317C571.63 332.521 572.748 332.052 573.922 331.988L592.721 331.988 592.721 370.75 495.22 370.75ZM515.991 260.25C509.913 260.24 504.988 255.315 504.98 249.237L504.98 212.765C504.988 206.684 509.913 201.759 515.991 201.749L571.967 201.749C578.045 201.759 582.971 206.684 582.98 212.765L582.98 249.237C582.971 255.315 578.045 260.24 571.967 260.25L515.991 260.25ZM533.144 266.751 555.895 266.751 555.895 276.499 533.144 276.499ZM526.646 282.999 592.731 282.999 592.731 325.478 573.932 325.478C571.146 325.534 568.474 326.603 566.415 328.48L556.178 304.215 544.182 328.915 534.146 290.475 517.674 325.478 495.23 325.478 495.23 282.999ZM618.73 398.375C618.715 410.035 609.267 419.486 597.605 419.5L490.356 419.5C478.689 419.5 469.231 410.042 469.231 398.375 469.231 386.708 478.689 377.25 490.356 377.25L597.605 377.25C609.267 377.265 618.715 386.713 618.73 398.375Z" fill="#FF7F4E"/><path d="M574.203 231.001C574.203 223.282 567.945 217.025 560.227 217.025 552.51 217.025 546.253 223.282 546.253 231.001 546.253 238.717 552.51 244.974 560.227 244.974 567.945 244.974 574.203 238.717 574.203 231.001ZM560.227 240.749C554.841 240.749 550.478 236.386 550.478 231.001 550.478 225.616 554.841 221.25 560.227 221.25 565.612 221.25 569.977 225.616 569.977 231.001 569.977 236.386 565.612 240.749 560.227 240.749Z" fill="#FF7F4E"/><path d="M565.103 231.001C565.103 233.693 562.919 235.875 560.227 235.875 557.534 235.875 555.352 233.693 555.352 231.001 555.352 228.308 557.534 226.124 560.227 226.124 562.919 226.124 565.103 228.308 565.103 231.001Z" fill="#FF7F4E"/><path d="M527.727 217.025C520.008 217.025 513.753 223.282 513.753 231.001 513.753 238.717 520.008 244.974 527.727 244.974 535.446 244.974 541.703 238.717 541.703 231.001 541.703 223.282 535.446 217.025 527.727 217.025ZM527.727 240.749C522.342 240.749 517.976 236.386 517.976 231.001 517.976 225.616 522.342 221.25 527.727 221.25 533.112 221.25 537.478 225.616 537.478 231.001 537.478 236.386 533.112 240.749 527.727 240.749Z" fill="#FF7F4E"/><path d="M532.603 231.001C532.603 233.693 530.419 235.875 527.727 235.875 525.034 235.875 522.853 233.693 522.853 231.001 522.853 228.308 525.034 226.124 527.727 226.124 530.419 226.124 532.603 228.308 532.603 231.001Z" fill="#FF7F4E"/><path d="M550.481 398.375C550.481 401.965 547.57 404.876 543.98 404.876 540.391 404.876 537.48 401.965 537.48 398.375 537.48 394.786 540.391 391.875 543.98 391.875 547.57 391.875 550.481 394.786 550.481 398.375Z" fill="#FF7F4E"/><path d="M503.356 398.375C503.356 401.965 500.445 404.876 496.856 404.876 493.267 404.876 490.356 401.965 490.356 398.375 490.356 394.786 493.267 391.875 496.856 391.875 500.445 391.875 503.356 394.786 503.356 398.375Z" fill="#FF7F4E"/><path d="M597.605 398.375C597.605 401.965 594.696 404.876 591.105 404.876 587.516 404.876 584.607 401.965 584.607 398.375 584.607 394.786 587.516 391.875 591.105 391.875 594.696 391.875 597.605 394.786 597.605 398.375Z" fill="#FF7F4E"/></g></svg>