<svg width="127" height="127" xmlns="http://www.w3.org/2000/svg" xmlns:xlink="http://www.w3.org/1999/xlink" xml:space="preserve" overflow="hidden"><g transform="translate(-356 -210)"><path d="M452.565 288.846 452.565 276.791C452.562 274.244 450.497 272.179 447.949 272.177L441.982 272.177 441.982 265.562 426.988 265.562 426.988 261.594 430.884 261.594C434.82 261.59 438.009 258.4 438.013 254.465L438.013 239.619C438.009 235.683 434.82 232.493 430.884 232.49L420.815 232.49 420.815 228.333C423.645 227.602 425.346 224.716 424.616 221.886 423.885 219.057 420.999 217.355 418.169 218.086 415.339 218.816 413.638 221.703 414.368 224.532 414.85 226.396 416.305 227.852 418.169 228.333L418.169 232.49 408.099 232.49C404.164 232.494 400.975 235.684 400.971 239.619L400.971 254.465C400.975 258.4 404.164 261.589 408.099 261.594L412.436 261.594 412.436 265.562 397.002 265.562 397.002 273.491 388.607 273.491C387.521 273.49 386.64 272.61 386.639 271.524L386.639 259.468C390.59 258.735 393.199 254.938 392.466 250.987 392.224 249.686 391.633 248.475 390.754 247.485L388.778 249.244C390.476 251.157 390.302 254.083 388.39 255.781 386.477 257.479 383.551 257.305 381.853 255.393 380.305 253.65 380.295 251.028 381.829 249.272L379.836 247.53C377.194 250.558 377.507 255.154 380.535 257.796 381.517 258.653 382.711 259.23 383.993 259.468L383.993 271.524C383.996 274.071 386.06 276.134 388.607 276.137L397.002 276.137 397.002 303.96C390.807 304.329 386.083 309.65 386.452 315.846 386.805 321.781 391.719 326.413 397.664 326.417L441.32 326.417C447.527 326.413 452.556 321.379 452.552 315.172 452.549 309.227 447.916 304.313 441.982 303.96L441.982 274.823 447.949 274.823C449.036 274.824 449.917 275.705 449.919 276.791L449.919 288.846C445.968 289.579 443.359 293.376 444.092 297.327 444.333 298.627 444.924 299.838 445.802 300.827L447.779 299.068C446.081 297.155 446.256 294.229 448.168 292.531 450.081 290.834 453.007 291.008 454.705 292.921 456.252 294.664 456.262 297.286 454.728 299.042L456.72 300.783C459.362 297.754 459.048 293.158 456.02 290.517 455.039 289.66 453.845 289.084 452.565 288.846ZM416.846 223.229C416.846 221.768 418.031 220.583 419.492 220.583 420.953 220.583 422.138 221.768 422.138 223.229 422.138 224.69 420.953 225.875 419.492 225.875 418.031 225.876 416.846 224.692 416.845 223.23 416.845 223.23 416.845 223.23 416.845 223.229ZM399.648 288.145 410.463 288.145 414.773 278.983 418.823 294.499 424.288 283.254 427.727 291.416 430.394 288.69C430.747 288.366 431.202 288.175 431.68 288.149L439.332 288.149 439.332 303.927 399.644 303.927ZM408.099 258.948C405.625 258.944 403.62 256.939 403.617 254.465L403.617 239.619C403.62 237.144 405.625 235.139 408.099 235.135L430.884 235.135C433.358 235.139 435.363 237.144 435.367 239.619L435.367 254.465C435.363 256.939 433.358 258.944 430.884 258.948L408.099 258.948ZM415.081 261.594 424.342 261.594 424.342 265.562 415.081 265.562ZM412.436 268.208 439.336 268.208 439.336 285.499 431.684 285.499C430.55 285.522 429.462 285.957 428.624 286.721L424.457 276.844 419.574 286.898 415.489 271.251 408.784 285.499 399.648 285.499 399.648 268.208ZM449.919 315.172C449.913 319.918 446.067 323.765 441.32 323.771L397.664 323.771C392.915 323.771 389.065 319.921 389.065 315.172 389.065 310.423 392.915 306.573 397.664 306.573L441.32 306.573C446.067 306.579 449.913 310.425 449.919 315.172Z" fill="#FF7F4E"/><path d="M431.794 247.042C431.794 243.9 429.247 241.353 426.105 241.353 422.964 241.353 420.417 243.9 420.417 247.042 420.417 250.183 422.964 252.73 426.105 252.73 429.247 252.73 431.794 250.183 431.794 247.042ZM426.105 251.01C423.913 251.01 422.137 249.234 422.137 247.042 422.137 244.85 423.913 243.073 426.105 243.073 428.297 243.073 430.074 244.85 430.074 247.042 430.074 249.234 428.297 251.01 426.105 251.01Z" fill="#FF7F4E"/><path d="M428.09 247.042C428.09 248.138 427.201 249.026 426.105 249.026 425.009 249.026 424.121 248.138 424.121 247.042 424.121 245.946 425.009 245.057 426.105 245.057 427.201 245.057 428.09 245.946 428.09 247.042Z" fill="#FF7F4E"/><path d="M412.876 241.353C409.734 241.353 407.188 243.9 407.188 247.042 407.188 250.183 409.734 252.73 412.876 252.73 416.018 252.73 418.565 250.183 418.565 247.042 418.565 243.9 416.018 241.353 412.876 241.353ZM412.876 251.01C410.684 251.01 408.907 249.234 408.907 247.042 408.907 244.85 410.684 243.073 412.876 243.073 415.068 243.073 416.845 244.85 416.845 247.042 416.845 249.234 415.068 251.01 412.876 251.01Z" fill="#FF7F4E"/><path d="M414.861 247.042C414.861 248.138 413.972 249.026 412.876 249.026 411.78 249.026 410.892 248.138 410.892 247.042 410.892 245.946 411.78 245.057 412.876 245.057 413.972 245.057 414.861 245.946 414.861 247.042Z" fill="#FF7F4E"/><path d="M422.138 315.172C422.138 316.633 420.953 317.818 419.492 317.818 418.031 317.818 416.846 316.633 416.846 315.172 416.846 313.711 418.031 312.526 419.492 312.526 420.953 312.526 422.138 313.711 422.138 315.172Z" fill="#FF7F4E"/><path d="M402.956 315.172C402.956 316.633 401.771 317.818 400.31 317.818 398.849 317.818 397.664 316.633 397.664 315.172 397.664 313.711 398.849 312.526 400.31 312.526 401.771 312.526 402.956 313.711 402.956 315.172Z" fill="#FF7F4E"/><path d="M441.32 315.172C441.32 316.633 440.136 317.818 438.674 317.818 437.213 317.818 436.029 316.633 436.029 315.172 436.029 313.711 437.213 312.526 438.674 312.526 440.136 312.526 441.32 313.711 441.32 315.172Z" fill="#FF7F4E"/></g></svg>